<svg version="1.2" xmlns="http://www.w3.org/2000/svg" viewBox="0 0 100 100" width="100" height="100"><style>.a{fill:#1e4243}.b{fill:#d9a333}.c{fill:#d6981e}.d{fill:#1b3132}.e{fill:#faf9f8}.f{fill:#011115}.g{fill:#081f22}.h{fill:#8a9b99}.i{fill:#f7f2e8}.j{fill:#d9a334}</style><path class="a" d="m44.7 47.9c-0.3 0.8-0.7 1.5-1.1 2.4-0.1 0.1-0.1 0.3-0.1 0.4q0 0-0.1 0-0.2 0.5-0.4 0.9 0 0 0 0-0.1 0.1-0.1 0.1c0 0 0 0 0 0q-0.9-0.1-1.6-0.1 0 0 0-0.1-0.2-0.3-0.3-0.6 0 0 0 0-0.1-0.1-0.1-0.1 0 0 0 0-0.1-0.2-0.1-0.3 0 0 0 0-0.1-0.3-0.3-0.5-0.3-0.6-0.5-1.3c-0.3-0.5-0.6-1.1-0.8-1.7q-0.3-0.5-0.6-1-0.1-0.1-0.1-0.1-0.1 0.3-0.1 0.6 0 3.6-0.1 7.2c-0.6 0-1.1 0-1.7 0-0.3 0-0.5-0.1-0.5-0.5q0-5.6 0-11.3c0-0.3 0.1-0.4 0.4-0.4q1.1 0 2.2 0 0 0 0.1 0.1 0 0.1 0.1 0.2 0 0 0 0 0.1 0.2 0.2 0.4 0 0 0 0 0 0.1 0.1 0.2 0 0 0 0 0 0.1 0.1 0.2 0 0 0 0 0 0.1 0.1 0.2 0 0 0 0.1 0.1 0.2 0.2 0.5 0.9 1.7 1.7 3.5 0.4 0.9 0.9 1.7c0.4-0.7 0.7-1.4 1-2q0 0 0 0 0.3-0.8 0.6-1.6 0 0 0.1 0 0.2-0.4 0.3-0.8 0-0.1 0-0.1 0 0 0.1 0 0.4-0.9 0.7-1.7 0 0 0 0 0.2-0.3 0.3-0.6 0 0 0 0 0.1-0.1 0.1-0.2c0 0 0-0.1 0.1-0.1 0.7 0 1.4 0 2.1 0 0.3 0 0.4 0.1 0.4 0.4 0 1.3 0 2.7 0 4.1 0 1.9 0 3.8 0 5.8q0 0.8 0 1.6c0.1 0.2 0 0.3-0.3 0.3-0.4 0-0.8 0-1.2 0-0.4 0.1-0.6-0.1-0.6-0.6q0-3.3 0-6.6c0-0.2-0.1-0.4-0.1-0.6q-0.1 0-0.1 0-0.1 0.2-0.2 0.5 0 0-0.1 0-0.2 0.6-0.5 1.1 0 0 0 0 0 0.1-0.1 0.2 0 0 0 0 0 0.1-0.1 0.2z"/><path class="a" d="m54.8 46.7c-0.9-0.7-2.2-0.3-2.7 0.7 0 0.1-0.2 0.2-0.3 0.2q-1 0.1-2 0c-0.2-1.1 0.6-2.2 2.2-2.8q0.3 0 0.4 0 1.4-0.3 2.7 0 0.4 0.1 0.8 0.2 0 0 0 0 0.2 0.1 0.4 0.2 0 0 0 0 0 0.1 0.1 0.1 0 0 0 0 0.1 0.1 0.1 0.1 0 0 0 0 0.1 0.1 0.2 0.2c0.6 0.5 0.7 1.1 0.9 1.9-0.1 0.2-0.1 0.4-0.1 0.5q0 2.6 0 5.2c0 0.2-0.1 0.5-0.2 0.5-0.6 0-1.2 0-1.7 0-0.2-0.3-0.2-0.6-0.3-0.8q0 0-0.1 0-0.2 0.1-0.2 0.2 0 0 0 0-0.2 0.2-0.3 0.3 0 0 0 0-0.1 0.1-0.2 0.2 0 0 0 0c-1.3 0.5-2.5 0.5-3.8-0.1 0-0.1-0.1 0-0.2 0q0.1-0.1 0.1-0.1-0.1 0-0.2 0 0 0 0-0.1 0 0 0 0c0 0-0.1 0-0.1 0 0-0.1 0-0.1 0-0.1 0 0-0.1 0-0.1 0 0-0.1 0-0.1 0-0.2q-0.1 0-0.2 0 0.1 0 0.1-0.1-0.1-0.1-0.2-0.2 0 0 0 0c-0.3-0.8-0.4-1.5-0.2-2.3q0.2-0.4 0.3-0.7 0 0 0 0 0.1-0.1 0.1-0.2 0 0 0.1 0 0-0.1 0-0.1 0 0 0.1 0 0-0.1 0-0.1 0 0 0.1 0 0-0.1 0-0.1 0 0 0.1 0c0.1 0 0.3 0 0.3-0.1 0.8-0.5 1.6-0.6 2.4-0.6q0.9 0 1.8 0c0.2 0 0.3 0 0.4-0.1 0.2-0.3-0.1-1.4-0.5-1.6q0 0 0 0 0-0.1-0.1-0.1zm-0.1 5q0 0 0-0.1 0 0 0.1 0 0 0 0 0c0 0 0 0 0-0.1 0.2-0.5 0.4-1 0.6-1.5-0.8 0-1.4 0-2 0-0.3 0-0.6 0.1-1 0.1-0.6 0.2-0.8 1-0.4 1.5 0 0 0-0.1 0 0q0 0.1 0.1 0.2c0.1 0.1 0.2 0.1 0.3 0.3q0.1 0 0.1 0c0 0 0 0 0.1 0.1 0.4 0.2 1.1 0.2 1.4-0.1 0 0 0 0 0.1 0q0.1 0 0.1-0.1 0 0 0.1 0 0 0 0.1-0.1c0 0 0 0 0 0q0.1 0 0.1-0.1 0 0 0.1 0 0-0.1 0.1 0-0.1-0.1 0-0.1z"/><path class="b" d="m24.5 51q0.3 0 0.6 0 0 0.4-0.1 0.8 0 0 0 0-0.1 0-0.1 0.1 0 0 0 0 0 0.1 0 0.1-0.2 0.3-0.4 0.5-0.1 0.1-0.1 0.2-0.1 0.1-0.4 0.3-0.1 0.1-0.2 0.1 0.1 0 0 0-0.1 0.1-0.2 0.2 0 0 0 0-0.1 0-0.2 0-2.1 1.2-4.4 0.2c0 0-0.1 0-0.2 0q0 0-0.1-0.1-0.2-0.1-0.3-0.2 0 0 0 0-0.2-0.1-0.3-0.2 0 0 0 0 0 0-0.1-0.1 0.1 0 0 0-0.1 0-0.1-0.1-0.1 0-0.2-0.2-0.1-0.1-0.1-0.2 0 0.1 0 0-0.1-0.1-0.2-0.1 0 0 0-0.1-0.1 0-0.1 0 0 0 0-0.1-0.1-0.1-0.1-0.1 0 0 0-0.1-0.1-0.1-0.1-0.1 0 0 0-0.1-0.1-0.2-0.2-0.3 0 0 0-0.1 0-0.1 0-0.1-0.5-1.5-0.2-2.9c0-0.2-0.1-0.3-0.1-0.4 0.3-1.1 0.8-1.9 1.8-2.6q0.1-0.1 0.2-0.1-0.1 0 0 0 1-0.3 1.9-0.6c0.5 0 1-0.1 1.4 0 1.8 0.3 2.9 1.5 3.4 3.3 0 0.2 0 0.3 0 0.4 0 0.1 0 0.1 0.1 0.2-0.1 0.3-0.1 0.6-0.1 0.8 0.1 0.4-0.1 0.5-0.6 0.5q-2.6 0-5.3 0c-0.1 0-0.3 0.1-0.5 0.2q0 0.1 0 0.1 0 0.1 0.1 0.2 0 0.1 0 0.2c0.3 1 1.1 1.7 2 1.7 0.8 0 1.5-0.3 1.9-1q0.2-0.1 0.2-0.2 0.1 0 0.2 0 0.1 0.1 0.1 0.1 0.1 0 0.1-0.1 0.4 0 0.8 0 0.1 0.1 0.1 0.1 0.1 0 0.1-0.1zm-5.4-3.4c0 0 0 0-0.1 0q0 0.4-0.1 0.7c0 0 0.1 0 0.1 0.1 0 0 0.1 0.1 0.2 0.1q1.7 0 3.4 0c0.1 0 0.2-0.1 0.3-0.2 0.1-0.8-0.3-1.5-1.1-1.8q-1.4-0.5-2.6 0.7-0.1 0.2-0.1 0.4z"/><path class="a" d="m86.7 45.8q0 0 0.1 0.1 0.1 0.2 0.2 0.3 0 0 0 0.1c0.1 0.6 0.3 1.1 0.4 1.6q-0.1 2.3-0.1 4.5c0 1.3 0 1.3-1.3 1.3-0.7 0-0.7 0-0.9-0.7q0 0-0.1-0.1-0.2 0.2-0.3 0.4-0.1 0.1-0.2 0.1-0.1 0.1-0.2 0.1 0 0 0 0-0.1 0.1-0.1 0.1 0 0 0 0-0.3 0.1-0.5 0.2 0 0 0 0-1.2 0-2.3 0c-0.3 0-0.5-0.1-0.8-0.1q0 0 0-0.1-0.1 0-0.2-0.1-0.3-0.3-0.7-0.7 0-0.1-0.1-0.2 0 0.1 0 0c-0.1-0.6-0.2-1.1-0.2-1.6 0-0.3 0.1-0.7 0.1-1q0 0 0.1 0 0.1-0.2 0.2-0.4 0 0 0 0 0.2-0.2 0.4-0.3c0.5-0.5 1.1-0.7 1.8-0.8 0.9 0 1.8 0 2.7 0 0.1 0 0.2 0 0.3-0.1 0.3-0.4 0.2-0.9 0-1.3-0.1-0.2-0.3-0.3-0.5-0.4q0.1 0 0 0c-0.4-0.5-1.5-0.6-1.9-0.2-0.2 0.2-0.4 0.3-0.6 0.6-0.2 0.1-0.4 0.3-0.5 0.3-0.5 0.1-1 0.1-1.6 0.1-0.2 0-0.3-0.2-0.3-0.4q0.2-0.5 0.3-1 0 0 0.1-0.1 0 0 0.1-0.1 0 0 0 0 0.3-0.3 0.5-0.5 0 0 0 0 0.1-0.1 0.1-0.1 0 0 0.1 0 0.2-0.2 0.4-0.3c0 0 0.1 0 0.1 0 0.1 0 0.1-0.1 0.2-0.1q1.4-0.2 2.8-0.4c0.1 0 0.1 0.1 0.2 0.1q0.8 0.3 1.5 0.5 0.1 0.2 0.3 0.3 0.3 0.2 0.4 0.4zm-4.6 6.2c0 0 0 0 0 0.1q0.1 0 0.1 0c0 0 0 0 0.1 0.1 0.4 0.3 0.8 0.3 1.3 0 0 0-0.1 0 0 0q0.1 0 0.2-0.1c0 0 0 0 0 0q0.1 0 0.2-0.1c0 0 0 0 0 0 0.1 0 0.1 0 0.2-0.1 0.5-0.4 0.7-1 0.8-1.7 0-0.2 0-0.3-0.2-0.3-0.8 0-1.7 0-2.5 0.1-0.2 0-0.4 0.2-0.5 0.4-0.2 0.5-0.3 0.9 0.1 1.5q0 0 0.1 0c0 0 0 0 0 0.1q0 0 0.1 0z"/><path class="b" d="m29.1 57.2q0 0-0.1 0c-0.8 0.1-1.5 0.2-2.2 0.2-0.1 0-0.3-0.1-0.3-0.2q0-0.8 0.1-1.5c0 0 0.1 0 0.3 0 0.4-0.1 0.8-0.2 1.1-0.2q0 0 0.1 0 0.1-0.1 0.1-0.1 0 0 0 0 0.1-0.1 0.1-0.1 0 0 0.1 0 0.1-0.2 0.3-0.3 0 0 0 0 0.1-0.1 0.1-0.2 0 0 0 0c0.6-0.7 0.5-1.8-0.1-2.4q-0.1 0-0.1 0 0-0.1 0-0.1 0 0 0-0.1c0-0.1 0-0.3 0-0.4q-0.9-2-1.8-4c-0.1-0.4-0.4-0.7-0.5-1q0 0 0-0.1-0.2-0.3-0.3-0.6 0 0 0 0c-0.1-0.4-0.2-0.8-0.3-1.2 0.6 0 1.1 0 1.7 0 0.4 0 0.6 0.2 0.7 0.6 0.1 0.2 0.3 0.5 0.4 0.7q0 0 0 0.1 0.4 1.1 0.7 2.2c0.1 0 0.2 0.1 0.2 0.1 0.3 0.7 0.6 1.4 0.9 2.3 0.3-0.7 0.5-1.3 0.7-1.9q0.2-0.2 0.3-0.3 0.6-1.7 1.1-3.3 0.2-0.5 0.6-0.5c0.6 0.1 1.1 0.1 1.7 0.2-0.1 0.2-0.1 0.4-0.2 0.6q-1 2.4-1.9 4.8c-0.1 0.2-0.1 0.5-0.2 0.7q0 0 0 0-0.2 0.1-0.2 0.3-0.6 1.4-1.1 2.7-0.3 1-0.6 1.9 0 0-0.1 0-0.1 0.1-0.1 0.2-0.2 0.3-0.5 0.5-0.2 0.1-0.2 0.2 0 0-0.1 0-0.1 0.1-0.2 0.1 0 0 0 0-0.1 0.1-0.2 0.1z"/><path class="a" d="m65.9 45q0.1 0 0.1 0.1 0.1 0.1 0.1 0.1c0 0 0 0 0 0q0.1 0.1 0.2 0.1 0 0 0 0 0.1 0.1 0.2 0.2 0 0 0 0 0.1 0.1 0.2 0.1 0 0-0.1 0.1 0.1 0.1 0.1 0.1 0 0 0 0 0.1 0.1 0.1 0.1 0 0 0 0 0.1 0.1 0.1 0.1 0 0 0 0 0.1 0.1 0.1 0.2 0 0 0 0 0.1 0.1 0.1 0.2 0 0 0 0 0.1 0.1 0.1 0.2 0 0 0 0 0.1 0.2 0.1 0.3 0 0 0 0c0.3 2.3 0.1 4.5 0.2 6.7-0.5 0.1-0.9 0.1-1.3 0.1-1 0-1 0-1-1q0-2.1 0-4.3c0-0.1-0.1-0.3-0.2-0.5q0-0.3-0.1-0.5c0 0 0 0 0 0q0-0.1 0-0.2-0.1-0.1-0.2-0.1 0 0 0 0 0-0.1-0.1-0.1 0 0-0.1-0.1c-0.5-0.7-1.6-0.7-2.2-0.1q-0.2 0.2-0.5 0.5c-0.2 0.5-0.4 0.8-0.5 1.2 0 1.7 0 3.4 0 5.2-0.5 0-1 0-1.5 0-0.4 0-0.5-0.1-0.5-0.5q0-3.6 0-7.3c0-1.1-0.1-1 0.9-1 0.3 0 0.7 0 0.9 0.1 0.1 0.1 0.1 0.5 0.1 0.7q0.1 0.1 0.1 0.2 0.1 0 0.2-0.1 0 0 0 0 0.1-0.1 0.1-0.1 0 0 0 0 0.3-0.3 0.5-0.5 0 0 0 0 0.1-0.1 0.1-0.1 0 0 0 0 0.1-0.1 0.2-0.1 0 0 0 0 0.1-0.1 0.2-0.1 0 0 0 0 0.1-0.1 0.2-0.1 0 0 0 0 1.3 0 2.5-0.1-0.1 0 0 0 0.1 0.1 0.2 0.1 0 0 0 0 0.2 0.1 0.2 0.1 0 0 0 0 0.1 0.1 0.2 0.1z"/><path class="a" d="m90.9 46.8q0 0.1-0.1 0.3-0.3 0.7 0.4 0.8 0 0 0 0 0.6 0.3 1.2 0.5 1.1 0.2 2.1 0.5 0 0 0 0 0.2 0.1 0.3 0.2 0 0 0 0 0.1 0.1 0.2 0.1 0 0 0 0 0.1 0.1 0.1 0.1 0 0 0 0 0.1 0.1 0.1 0.1 0 0 0 0 0.1 0.1 0.1 0.1 0 0 0 0 0.1 0.1 0.2 0.2 0 0 0 0 0 0.1 0 0.1 0 0 0 0 0.1 0.3 0.2 0.5 0 0 0 0c0 0.2 0 0.3 0 0.4q-0.1 1-0.3 1.9 0-0.1 0-0.1-0.1 0.2-0.1 0.3 0 0-0.1 0 0 0 0 0.1 0 0-0.1 0 0 0 0 0.1 0 0-0.1 0 0 0 0 0.1 0 0-0.1 0 0 0 0 0.1 0 0-0.1 0-0.1 0-0.2 0.1 0 0 0 0-0.1 0.1-0.1 0.2c0 0-0.1-0.1-0.1-0.1q-0.1 0.1-0.1 0.2 0 0-0.1 0-0.1 0-0.1 0.1 0 0-0.1 0-0.1 0-0.1 0 0 0-0.1 0-0.1 0.1-0.2 0.1 0 0-0.1 0c-0.2 0-0.4 0.1-0.5 0.1-0.9-0.1-1.7-0.1-2.5-0.2-0.3 0-0.7-0.2-1-0.3q0 0 0-0.1 0 0-0.1 0 0 0 0-0.1 0 0-0.1 0c0 0 0 0 0 0q-0.1-0.1-0.1-0.2 0 0 0 0-0.1-0.1-0.2-0.1 0 0 0-0.1 0 0-0.1 0 0 0 0-0.1 0-0.1-0.1-0.1 0 0 0-0.1 0 0 0-0.1 0 0.1 0 0-0.1-0.6-0.2-1.1c0.7 0 1.3-0.1 2-0.1q0 0 0 0.1 0 0.1 0.1 0.3 0 0 0 0 0.1 0.1 0.2 0.1 0 0 0 0.1 0 0 0.1 0 0 0-0.1 0 0.1 0.1 0.2 0.1c0.7 0.6 1.8 0.5 2.3-0.2 0.3-0.3 0.2-1.1-0.3-1.3-0.6-0.2-1.2-0.3-1.8-0.4-0.7-0.3-1.3-0.6-2-0.9q-0.1-0.1-0.2-0.1 0 0 0-0.1 0 0-0.1 0 0 0 0-0.1 0 0-0.1 0 0 0 0-0.1c-0.4-0.9-0.3-1.7 0.1-2.6q0-0.2 0.2-0.4 0.1-0.2 0.4-0.4c0.1-0.1 0.2-0.2 0.3-0.2q0 0 0 0 0.1-0.1 0.2-0.1 0 0 0 0 0.1-0.1 0.2-0.1 0 0 0 0c1-0.2 1.9-0.4 2.8-0.2q0.6 0.2 1.2 0.4 0 0 0 0 0.1 0.1 0.2 0.1-0.1 0 0 0 0 0.1 0.1 0.1 0 0 0 0 0 0.1 0.1 0.1 0 0 0 0 0 0.1 0.1 0.1 0 0-0.1 0 0.2 0.1 0.2 0.2 0 0 0 0 0.1 0.1 0.1 0.1 0 0 0 0c0.1 0.2 0.1 0.3 0.1 0.4 0.5 1 0.5 1.1-0.6 1.1q-0.1 0-0.3 0-0.5 0.1-0.8-0.4 0-0.1-0.1-0.1 0 0 0 0 0-0.1-0.1-0.1 0 0 0 0c-0.4-0.6-1.4-0.7-1.9-0.3q0 0 0 0-0.1 0.1-0.1 0.1 0 0 0 0-0.1 0.1-0.2 0.1 0 0 0 0 0 0.1-0.1 0.1 0.1 0 0 0 0 0 0 0 0 0 0 0.1z"/><path class="a" d="m76.2 44.7c0 0 0 0 0.1 0.1q0.4 0.1 0.9 0.1c1.3 0 1.3 0 1.2 1.3 0 0.3-0.1 0.4-0.3 0.4q-0.7 0-1.4 0c-0.2 0-0.3 0.1-0.4 0.2q-0.1 0-0.1 0c-0.1 0-0.1 0-0.1 0q-0.1 1.9-0.1 3.8c0 0.1 0 0.1 0.1 0.2q0 0 0 0.1c0.1 0.3 0.1 0.8 0.6 0.8q0 0 0 0.1 0.1 0 0.2 0 0 0 0 0.1 0.5 0.1 1 0.1c0.2 0.1 0.3 0.1 0.3 0.4 0 0.4 0 0.8-0.1 1.3q-1.1-0.1-2.4-0.2-0.3 0-0.5 0 0 0 0-0.1-0.2-0.1-0.4-0.2 0 0 0 0-0.1 0-0.1-0.1 0 0 0 0-0.1-0.1-0.3-0.3-0.1-0.1-0.2-0.1 0 0 0-0.1c-0.1-0.5-0.2-0.9-0.3-1.4q0-2.1 0-4.3 0 0-0.1 0 0 0 0-0.1c-0.1-0.1-0.2-0.1-0.4-0.2q-0.4 0-0.9 0c0-0.3 0-0.6 0-0.9 0-0.9-0.1-0.8 0.8-0.8 0.2 0 0.3-0.1 0.5-0.2q0-0.1 0.1-0.1 0-0.9 0-1.8c0-0.3 0.1-0.4 0.4-0.4q0.7 0 1.4 0c0.3 0 0.4 0.1 0.4 0.3q0 0.8 0 1.6c0 0.1 0.1 0.3 0.1 0.4z"/><path class="c" d="m5.5 44.3c0-0.6 0-1.3 0-2 0-0.4 0-0.6 0-0.9 0.8 0 1.6 0 2.5 0 0 1.6 0 3 0 4.5 0 0.1 0.1 0.3 0.2 0.4 1.5 0 3 0 4.6 0 0.1 0 0.1-0.1 0.1-0.1 0-0.1 0-0.1 0-0.2 0-0.1 0-0.2 0-0.2q0-2.2 0-4.4c0.8 0 1.6 0 2.5 0q0 0.2 0 0.4 0 5.8 0 11.5c0 0.2 0.1 0.5-0.4 0.5-0.7 0-1.4 0-2 0q-0.1 0-0.1-0.1 0-0.2 0-0.3c0-1.5 0-3 0-4.6q0-0.2 0-0.2 0 0 0 0c0.1 0.2 0.2 0.4 0.2 0.5q0 2.1 0 4.1c0 0.3 0.1 0.4 0.4 0.4q0.5 0 1.1 0c0.4 0.1 0.6-0.1 0.6-0.5q-0.1-3.6-0.1-7.3 0-1.8 0-3.7c0.1-0.4-0.1-0.5-0.5-0.5q-0.5 0-1.1 0c-0.3 0-0.4 0.1-0.4 0.4q0 1.7 0 3.4c0 1.1 0 1.1-1.1 1.1q-0.2 0-0.3 0c-1.1 0-2.1 0-3.2 0-0.5 0-0.6-0.2-0.6-0.6 0-1.3 0-2.6 0-3.9 0-0.4-0.1-0.5-0.5-0.5q-0.6 0.1-1.3 0c-0.5-0.1-0.5 0.1-0.5 0.6q0 5 0 10c0 0.2-0.1 0.3-0.1 0.5 0 0 0-0.1 0-0.1 0-0.2 0-0.5 0-0.8 0-0.9 0-1.7 0-2.5 0-0.1 0-0.1 0-0.3 0-1.2 0-2.3 0-3.4 0-0.1 0-0.1 0-0.3 0-0.1 0-0.1 0-0.2 0-0.1 0-0.1 0-0.3 0-0.2 0-0.3 0-0.4z"/><path class="a" d="m69.3 41.6c0.5-0.4 1-0.4 1.5-0.3 0.6 0.2 1 1.1 0.6 1.9-0.1 0.1-0.1 0.1-0.1 0.2q0 0 0 0-0.1 0.1-0.2 0.2 0 0 0 0-0.1 0-0.2 0.1 0.1 0 0 0-0.8-0.1-1.5-0.1c0 0 0 0 0 0q0 0-0.1 0-0.1-0.1-0.1-0.2-0.1-0.1-0.1-0.1 0 0 0 0 0-0.1-0.1-0.1 0 0 0-0.1 0.1-0.7 0.2-1.4 0 0 0 0 0.1-0.1 0.1-0.1z"/><path class="d" d="m45.8 45.9c0 0.2 0.1 0.4 0.1 0.6q0 3.3 0 6.6c0 0.5 0.2 0.7 0.6 0.6 0.4 0 0.8 0 1.2 0 0.3 0 0.4-0.1 0.3-0.3q0-0.8 0-1.6c0-2 0-3.9 0-5.8 0-1.4 0-2.8 0-4.1 0-0.3-0.1-0.4-0.4-0.4q-1 0-2.1 0 0-0.1 0.2-0.2c0.9 0 1.7 0 2.4 0q0 0 0.1 0.1 0 1.6 0 3.2 0 4.6 0 9.2c0 0-0.1 0-0.2 0-0.7 0-1.4 0-2.1 0q0 0-0.1 0 0-4 0-7.9z"/><path class="d" d="m61.5 45.8q-0.1 0.1-0.2 0.1 0-0.1-0.1-0.2c0-0.2 0-0.6-0.1-0.7-0.2-0.1-0.6-0.1-0.9-0.1-1 0-0.9-0.1-0.9 1q0 3.7 0 7.3c0 0.4 0.1 0.5 0.5 0.5 0.5 0 1 0 1.5 0 0-1.8 0-3.5 0-5.2 0.1-0.4 0.3-0.7 0.5-1.1q0 0 0 0 0 0 0 0 0 0 0 0.1-0.1 0.1-0.2 0.3c0 0.1 0 0.2-0.1 0.4 0 0.2-0.1 0.5-0.1 0.7q0 2.4 0 4.9c-0.7 0-1.4 0-2.2 0-0.1-3.1-0.1-6-0.1-9q0 0 0 0 0.1 0 0.1-0.1 0 0 0.1 0c0.7 0 1.3 0 1.9 0q0.1 0 0.2 0.2 0 0.5 0.1 0.9z"/><path class="c" d="m32.5 51.2c0-0.2 0-0.5 0.1-0.7q0.9-2.4 1.9-4.8c0.1-0.2 0.1-0.4 0.2-0.6-0.6-0.1-1.1-0.1-1.7-0.2q-0.4 0-0.6 0.5-0.5 1.6-1.1 3.3-0.1 0.1-0.3 0.3 0.7-2 1.4-4c0.1-0.1 0.2-0.2 0.3-0.2 0.7-0.1 1.5-0.1 2.3-0.1-0.8 2.2-1.7 4.3-2.5 6.5z"/><path class="e" d="m36 53.8c0-0.1-0.2-0.2-0.2-0.4q0-5.8 0-11.7c0-0.1 0.1-0.2 0.2-0.2q0 6.2 0 12.3z"/><path class="f" d="m69 53.6c0-0.5 0-0.9 0-1.4 0-0.2 0-0.3 0-0.4 0-2.1 0-4.3 0-6.6 0-0.1 0-0.2 0-0.3q0 0 0.1 0 0 0.2 0 0.5 0 4.1 0.1 8.2c0.7 0.1 1.4 0.1 2.1 0.1q0-4.4 0-8.7 0-0.1 0.1-0.2 0 4.5 0 9c-0.8 0-1.6 0-2.4-0.1 0-0.1 0-0.1 0-0.1z"/><path class="g" d="m36.1 53.8q-0.1-6.1-0.1-12.3 1.3-0.1 2.7 0-1.1 0-2.2 0c-0.3 0-0.4 0.1-0.4 0.4q0 5.7 0 11.3c0 0.4 0.2 0.5 0.5 0.5q0.8 0 1.7 0c0.1 0 0.1 0.1 0.1 0.1 0 0 0 0-0.1 0q-1 0-2 0-0.1 0-0.2 0z"/><path class="e" d="m87.4 47.9q-0.2-0.8-0.4-1.6c0.1 0.1 0.3 0.2 0.3 0.3 0.1 0.5 0.3 1.1 0.3 1.6 0 1.8 0 3.5 0 5.2 0 0.3-0.1 0.6-0.4 0.6q-1 0-2 0c-0.1 0-0.1-0.1-0.1-0.2q1.2 0 2.3 0 0-3 0-5.9z"/><path class="e" d="m59.1 44.8c0 3 0 5.9 0 8.9 0-0.1-0.2-0.2-0.2-0.4q0-4 0-8.1c0-0.1 0.1-0.2 0.2-0.4z"/><path class="e" d="m64.9 47.5q0.1 0.1 0.1 0.5c0.1 0.3 0.1 0.5 0.1 0.8q0 2.5 0 5c-0.1-0.1-0.2-0.3-0.2-0.4q-0.1-2.2-0.1-4.4 0-0.7 0.1-1.5z"/><path class="e" d="m38.5 45.9q0 0 0.1 0.1 0.2 0.5 0.4 0.9-0.2-0.1-0.3-0.2 0 3.3 0 6.6c0 0.1-0.1 0.3-0.2 0.5q0-4 0-7.9z"/><path class="e" d="m45.8 45.9q0 3.9 0 7.9c-0.1-0.2-0.2-0.3-0.2-0.5q0-3 0-6.1c0-0.2-0.1-0.3-0.2-0.5q0-0.2 0.1-0.3 0 0 0 0 0.1-0.3 0.2-0.5c0 0 0 0 0.1 0z"/><path class="f" d="m55.3 53c0.1 0.1 0.1 0.4 0.3 0.7 0.5 0 1.1 0 1.7 0 0.1 0 0.2-0.3 0.2-0.5q0-2.6 0-5.2 0-0.2 0.1-0.5 0 3.1 0 6.3-1.1 0-2.3 0 0-0.4 0-0.8z"/><path class="g" d="m65.2 53.8q-0.1-2.5-0.1-5c0-0.3 0-0.5-0.1-0.8 0.1 0.1 0.2 0.3 0.2 0.4q0 2.2 0 4.3c0 1 0 1 1 1 0.4 0 0.8 0 1.3-0.1-0.1-2.2 0.1-4.4-0.2-6.7 0.1 0.4 0.3 0.8 0.3 1.3 0 1.8 0 3.7 0 5.6-0.8 0-1.6 0-2.4 0z"/><path class="c" d="m12.8 48.6c-1.5 0-3 0-4.6 0q-0.2 0.3-0.2 0.5 0 2.4 0 4.7 0 0-0.1 0-0.2 0-0.4 0c0.4-0.1 0.4-0.3 0.4-0.5q0-2.2 0-4.4c0-0.3 0.1-0.5 0.5-0.5q2 0 4.1 0c0.1 0 0.2 0.2 0.4 0.2q0 0 0 0c-0.1 0-0.1 0-0.1 0z"/><path class="d" d="m75.2 53.5q0.2 0 0.5 0 1.3 0.1 2.4 0.2c0.1-0.5 0.1-0.9 0.1-1.3 0-0.3-0.1-0.3-0.3-0.4q-0.5 0-1-0.1 0.7-0.1 1.5 0.1c0 0.6 0 1.2 0 1.8q0 0-0.1 0.1-1.4-0.1-2.6-0.2-0.2 0-0.4-0.1-0.1-0.1-0.1-0.1 0 0 0 0z"/><path class="c" d="m18.9 50c0.2-0.1 0.4-0.2 0.5-0.2q2.7 0 5.3 0c0.5 0 0.7-0.1 0.6-0.5 0-0.2 0-0.5 0.1-0.7q0 0.6 0 1.4c-0.7 0-1.3 0-2 0-0.4 0-0.7 0-1 0-0.7 0-1.3 0-2 0-0.2 0-0.3 0-0.5 0-0.2 0-0.5 0-0.8 0-0.1 0-0.1 0-0.2 0z"/><path class="d" d="m69.1 53.6q0-4.1 0-8.2 0-0.2 0-0.5 0.5-0.1 1-0.2 0.6 0 1.3 0.1c-0.1 0.1-0.1 0.1-0.2 0.2q-0.8 0-1.6-0.1c-0.3 0-0.4 0.1-0.4 0.4q0.1 4 0.1 8c0 0.1-0.1 0.2-0.2 0.3z"/><path class="e" d="m73.8 51.3q0.2 0.6 0.4 1.3c-0.2-0.2-0.4-0.5-0.4-0.8-0.1-1.2-0.1-2.5-0.2-3.7q0-0.5 0-1-0.6-0.1-1.2-0.2 0.8-0.1 1.4 0 0 0 0 0c0 0 0 0.1 0 0.1q0 2.2 0 4.3z"/><path class="e" d="m48.2 53.8q0-4.6 0-9.2 0-1.6 0-3.2c0 0 0.1 0.2 0.1 0.3q0 5.9 0 11.8 0 0.1-0.1 0.3z"/><path class="d" d="m54.9 46.9c0.4 0.1 0.7 1.2 0.5 1.5-0.1 0.1-0.2 0.1-0.4 0.1q-0.9 0-1.8 0c-0.8 0-1.6 0.1-2.4 0.6 0 0.1-0.2 0.1-0.3 0.1 0.8-0.7 1.7-0.8 2.7-0.8 0.7-0.1 1.4 0 2.2 0-0.2-0.6-0.3-1-0.5-1.5z"/><path class="e" d="m86 45.1q-0.7-0.2-1.5-0.5c-0.1 0-0.1-0.1-0.2-0.1q-1.4 0.2-2.8 0.4c-0.1 0-0.1 0.1-0.2 0.1 0-0.1 0.1-0.3 0.2-0.3 1.5-0.5 3-0.5 4.4 0.2q0.1 0.1 0.1 0.2z"/><path class="f" d="m76.3 46.8c0.1-0.1 0.2-0.2 0.4-0.2q0.7 0 1.4 0c0.2 0 0.3-0.1 0.3-0.4 0.1-1.3 0.1-1.3-1.2-1.3q-0.5 0-0.9-0.1 1-0.1 2.1-0.1 0.1 0 0.1 0.1c0 0.6 0 1.2 0 1.9-0.7 0.1-1.3 0.1-1.9 0.1q-0.1 0-0.2 0-0.1 0-0.1 0z"/><path class="e" d="m8 53.8q0-2.3 0-4.7 0-0.2 0.2-0.5 0 2.4 0 4.7c0 0.2-0.1 0.3-0.2 0.5z"/><path class="c" d="m26.3 46.8c0.1 0.3 0.4 0.6 0.5 1q0.9 2 1.8 4c0 0.1 0 0.3 0 0.4q-1.2-2.6-2.3-5.4z"/><path class="c" d="m28.5 46.2c-0.1-0.2-0.3-0.5-0.4-0.7-0.1-0.4-0.3-0.6-0.7-0.6-0.6 0-1.1 0-1.7 0 0.1 0.4 0.2 0.8 0.3 1.2-0.2-0.4-0.4-0.8-0.7-1.4 0.7 0 1.2 0 1.7 0 1 0 1 0 1.4 1q0 0.2 0.1 0.5z"/><path class="e" d="m8.2 46.2c-0.1 0-0.2-0.2-0.2-0.3q0-2.2 0-4.4c0.1 0.1 0.2 0.2 0.2 0.4q0 2.1 0 4.3z"/><path class="f" d="m87.4 47.9q0 2.9 0 5.9-1.1 0-2.3 0 0 0 0-0.1 0-0.4 0-0.8 0 0.1 0 0.1c0.2 0.7 0.2 0.7 0.9 0.7 1.3 0 1.3 0 1.3-1.3q0-2.2 0.1-4.5z"/><path class="c" d="m30.5 56q0.3-0.8 0.6-1.8 0.5-1.3 1.1-2.7 0-0.2 0.2-0.3-0.9 2.4-1.9 4.8z"/><path class="c" d="m18.9 53.6c0-0.1 0.1-0.1 0.1-0.1q2.3 1 4.4-0.2 0.1 0 0.2 0c-1.5 1-3.1 1-4.7 0.3z"/><path class="c" d="m26.5 55.6c0 0.6 0 1.1 0 1.6 0 0.1 0.2 0.2 0.3 0.2 0.7 0 1.4-0.1 2.2-0.2-0.8 0.5-1.6 0.4-2.5 0.3-0.1 0-0.2-0.1-0.2-0.2q0-0.8 0-1.5c0-0.1 0.1-0.2 0.2-0.2z"/><path class="e" d="m76.3 46.8q0 0 0 0 0.1 2.1 0 4.3-0.1-0.1-0.1-0.3 0-2 0-4c0 0 0.1 0 0.1 0z"/><path class="d" d="m73.8 46.8q-0.6 0.1-1.4 0 0 0 0-0.1 0-1 0-2 0 0 0 0 0.8 0 1.4 0c-0.2 0.1-0.3 0.2-0.5 0.2-0.9 0-0.8-0.1-0.8 0.8 0 0.3 0 0.6 0 0.9q0.5 0 0.9 0c0.2 0.1 0.3 0.1 0.4 0.2z"/><path class="f" d="m38.5 45.9q0 3.9 0 7.9c0 0-0.1 0-0.1 0 0 0 0-0.1 0-0.1q0-3.6 0-7.2 0-0.3 0.1-0.6z"/><path class="d" d="m79.9 46.1q-0.1 0.5-0.3 1c0 0.2 0.1 0.4 0.3 0.4 0.6 0 1.1 0 1.6-0.1 0.1 0 0.3-0.2 0.4-0.3 0 0.5-0.3 0.6-0.8 0.6-0.5-0.1-1-0.1-1.6-0.1-0.1-0.5 0.1-1 0.4-1.5z"/><path class="d" d="m50.6 53.5c0 0 0.1-0.1 0.1 0 1.3 0.6 2.5 0.6 3.8 0.1-1.3 0.7-2.6 0.6-3.9-0.1z"/><path class="d" d="m89.5 53.4c0.3 0.1 0.7 0.3 1 0.3 0.8 0.1 1.6 0.1 2.5 0.2 0.1 0 0.3-0.1 0.5-0.1q-2 0.8-4-0.4z"/><path class="e" d="m73.8 44.7q-0.6 0-1.4 0c0.2 0 0.3-0.1 0.5-0.2 0.2 0 0.5 0.1 0.7 0.1q0-0.9 0-1.8c0-0.2 0.1-0.3 0.2-0.5q0 1.2 0 2.3c0 0 0 0.1 0 0.1z"/><path class="f" d="m73.9 44.6q-0.1-1.1-0.1-2.3 0.1 0 0.2 0c0.7 0 1.5 0 2.2 0q0 1.1 0 2.4c0-0.1-0.1-0.3-0.1-0.4q0-0.8 0-1.6c0-0.2-0.1-0.3-0.4-0.3q-0.7 0-1.4 0c-0.3 0-0.4 0.1-0.4 0.4q0 0.9 0 1.8z"/><path class="e" d="m5.4 45.5q0.1 1.7 0.1 3.4c-0.1-0.1-0.2-0.1-0.2-0.2q0-1.5 0-3 0-0.1 0.1-0.2z"/><path class="d" d="m93.5 46.9q0.2 0.5 0.7 0.4 0.2 0 0.3 0c1.1 0 1.1-0.1 0.7-1.1q0 0 0.1 0c0.5 1.1 0.4 1.3-0.8 1.3q-0.1-0.1-0.2 0c-0.5 0-0.8-0.1-0.9-0.6q0 0 0.1 0z"/><path class="g" d="m90.6 51.2c-0.7 0-1.3 0.1-2 0.1 0 0.4 0.1 0.7 0.2 1.1q-0.3-0.6-0.5-1.3c0.8 0 1.5 0 2.3 0.1z"/><path class="g" d="m94.3 45q-0.6-0.1-1.2-0.3c-0.9-0.2-1.8 0-2.8 0.2 1.3-0.6 2.6-0.6 4 0.1z"/><path class="d" d="m94.5 48.9q-1-0.2-2.1-0.5-0.6-0.2-1.2-0.5 0.9 0.2 1.8 0.4 0.7 0.3 1.5 0.6z"/><path class="e" d="m61.5 53.8q-0.1-2.5-0.1-4.9 0.1-0.3 0.1-0.7c0.1 0.1 0.1 0.2 0.1 0.3q0 2.5 0 4.9 0 0.2-0.1 0.4z"/><path class="c" d="m16.6 47.9c0 0.1 0.1 0.2 0.1 0.4q-0.3 1.4 0.2 2.9 0 0 0 0.1c-0.6-1-0.5-2.2-0.3-3.4z"/><path class="g" d="m55.9 45q-0.4-0.1-0.8-0.2-1.3-0.3-2.7 0-0.1 0-0.3 0c1.2-0.4 2.5-0.4 3.8 0.2z"/><path class="g" d="m85 48.4c-0.1 0.1-0.2 0.1-0.3 0.1q-1.3 0-2.6 0 1.3-0.1 2.8-0.1 0.1 0 0.1 0z"/><path class="d" d="m80.7 53.7c0.2 0 0.4 0.1 0.7 0.1 0.7 0 1.5 0 2.2 0.1-0.8 0.3-1.6 0.2-2.4 0q-0.1 0-0.2 0-0.1-0.1-0.1-0.1-0.1 0-0.2-0.1z"/><path class="g" d="m88.9 46.1c-0.3 0.9-0.4 1.7 0 2.6-0.6-0.6-0.6-1.9 0-2.6z"/><path class="d" d="m79.5 50c0 0.3-0.1 0.7-0.1 1 0 0.5 0.1 1 0.2 1.6-0.5-0.8-0.5-1.7-0.1-2.6z"/><path class="e" d="m5.4 49.2q0.1 1.2 0.1 2.4c-0.1 0-0.2-0.1-0.2-0.2q0-1 0-2 0-0.1 0.1-0.2z"/><path class="d" d="m62.3 46.8c0.6-0.6 1.7-0.6 2.2 0.1-0.7-0.5-1.4-0.4-2.2-0.1z"/><path class="e" d="m7.5 53.8q0.2 0 0.4 0c0 0.1 0 0.1-0.1 0.1q-1.1 0-2.2 0c0-0.1 0-0.1 0.1-0.1 0.3 0 0.6 0 0.9 0 0.2 0 0.4 0 0.6 0q0.2 0 0.3 0z"/><path class="e" d="m76.2 42.3q-1.1 0-2.2 0c-0.1-0.1 0-0.2 0-0.2q1.1 0.1 2.2 0.2z"/><path class="c" d="m28.7 52.5c0.6 0.5 0.7 1.6 0.1 2.3 0.5-0.8 0.3-1.5-0.1-2.3z"/><path class="e" d="m72.3 44.7q0.1 1 0.1 2c-0.1 0.1-0.2 0-0.2 0q0-1 0.1-2z"/><path class="e" d="m13 53.9q1-0.1 2-0.1c0 0.1 0 0.1 0 0.1q-1 0-2 0z"/><path class="c" d="m29.4 48.6c0 0-0.1-0.1-0.2-0.1q-0.3-1.1-0.7-2.2 0.5 1.1 0.9 2.3z"/><path class="g" d="m49.7 50.4c-0.2 0.8-0.1 1.5 0.2 2.3-0.5-0.7-0.5-1.4-0.3-2.3 0.1 0 0.1 0 0.1 0z"/><path class="e" d="m81.2 54c0.8 0.1 1.6 0.2 2.5-0.1 0-0.1 0-0.1 0-0.1q0.2 0 0.3 0c-0.2 0.1-0.4 0.3-0.7 0.3-0.7 0.1-1.4 0.2-2.1-0.1z"/><path class="e" d="m75.7 53.8q1.2 0 2.6 0.1c-0.9 0.1-1.7 0.3-2.6-0.1z"/><path class="d" d="m95.5 52.5q0-0.8 0.2-1.8c0.1-0.1 0.1-0.2 0.1-0.2 0.2 0.7 0 1.4-0.3 2z"/><path class="g" d="m43.1 46.6q-0.3 1-0.8 2 0.4-1 0.8-2z"/><path class="d" d="m85 48.4q-0.1 0 0 0c0.1-0.6 0-1.2-0.4-1.7 0.1 0.1 0.3 0.2 0.4 0.4 0.2 0.4 0.3 0.9 0 1.3z"/><path class="e" d="m45.9 53.9q1-0.1 2.1-0.1c-0.6 0.2-1.3 0.3-2.1 0.1z"/><path class="g" d="m39.2 47.1q0.4 0.8 0.8 1.6-0.4-0.7-0.8-1.4-0.1-0.2-0.1-0.2 0.1 0 0.1 0z"/><path class="c" d="m20.5 44.6q-0.9 0.3-1.9 0.6 0.8-0.6 1.9-0.6z"/><path class="g" d="m91.4 46.4c0.4-0.4 1.4-0.3 1.8 0.3q-0.8-0.6-1.8-0.3z"/><path class="g" d="m65.2 44.7q-1.1 0.1-2.4 0.1c0.8-0.4 1.6-0.3 2.4-0.1z"/><path class="d" d="m41.3 51.6q0.7 0 1.6 0.1c-0.5 0.2-1.1 0.3-1.6-0.1z"/><path class="d" d="m45 42.4q-0.3 0.8-0.7 1.7 0.3-0.8 0.7-1.7z"/><path class="g" d="m82.6 46.5c0.4-0.4 1.5-0.3 2 0.2-0.6-0.3-1.3-0.4-2-0.2z"/><path class="g" d="m43.8 45q-0.3 0.8-0.6 1.6 0.3-0.8 0.6-1.6z"/><path class="g" d="m69.2 41.7q-0.1 0.7-0.2 1.4c-0.3-0.4-0.2-0.9 0.2-1.4z"/><path class="d" d="m69.4 43.6q0.7 0 1.5 0.1-0.7 0.4-1.5-0.1z"/><path class="e" d="m48.1 41.3q-1.1 0-2.4 0 0.7-0.1 1.4-0.1 0.5 0 1 0.1z"/><path class="e" d="m36.4 53.8q0.9 0 1.9 0-0.9 0.1-1.9 0z"/><path class="e" d="m76.6 46.8q0.9 0 1.9 0c-0.3 0-0.6 0.1-1 0.1q-0.4 0-0.9-0.1z"/><path class="e" d="m61.2 44.7q-0.9 0-1.9 0 0.9 0 1.9 0z"/><path class="d" d="m91.1 47.9c-0.4-0.1-0.5-0.3-0.4-0.8q0.2 0.3 0.4 0.8z"/><path class="d" d="m76.2 50.9q0.1 0.1 0.1 0.2 0 0 0 0.1 0.1 0.1 0.2 0.2 0.1 0.1 0.2 0.3c-0.5 0-0.5-0.5-0.6-0.8q0.1 0 0.1 0z"/><path class="e" d="m78.4 53.8q0-0.9 0-1.8 0.1 0.8 0 1.8z"/><path class="e" d="m5.4 41.4q0.1 0.4 0.1 0.8c-0.4-0.2-0.3-0.5-0.1-0.8z"/><path class="d" d="m45.4 46.4q0 0.1 0 0.2c0 0.1-0.1 0.2-0.1 0.3q-0.1 0-0.1 0.1-0.1 0.2-0.2 0.5 0.1-0.5 0.4-1.1z"/><path class="e" d="m61.5 45.8q-0.1-0.4-0.1-0.9 0.1 0.1 0.3 0.4-0.1 0.2-0.1 0.4 0 0 0 0-0.1 0-0.1 0.1 0 0 0 0z"/><path class="e" d="m85 52.9q0.1 0.4 0 0.8-0.1-0.2-0.3-0.4 0.1-0.2 0.3-0.4z"/><path class="c" d="m28 55.5q-0.5 0.1-1.1 0.2 0.5-0.1 1.1-0.2z"/><path class="d" d="m43.1 51.6q0.1-0.4 0.3-0.9-0.1 0.4-0.3 0.9z"/><path class="g" d="m39 46.9q-0.2-0.4-0.4-0.9 0.3 0.5 0.6 1 0 0.1-0.1 0.1 0 0 0 0 0 0 0-0.1-0.1 0-0.1-0.1 0 0 0 0z"/><path class="e" d="m5.4 52.6q0.1-0.1 0.1 0.1c0 0.1 0 0.2 0 0.4q0 0.1 0 0.2c-0.4-0.2-0.3-0.5-0.1-0.7z"/><path class="g" d="m44.2 44.2q-0.1 0.4-0.3 0.8 0.1-0.3 0.3-0.7 0-0.1 0-0.1z"/><path class="d" d="m80.5 45.4q-0.1 0.2-0.4 0.5 0.2-0.2 0.4-0.5z"/><path class="d" d="m49.7 50.4q0 0-0.1 0 0.2-0.3 0.4-0.7-0.1 0.3-0.3 0.7z"/><path class="d" d="m61.6 45.7q0-0.2 0.1-0.4 0.2 0 0.4-0.1-0.2 0.2-0.5 0.5z"/><path class="c" d="m26 46.1q0.1 0.3 0.3 0.6-0.2-0.2-0.3-0.6z"/><path class="d" d="m41 51q0.1 0.2 0.3 0.5-0.2-0.2-0.3-0.5z"/><path class="e" d="m22.4 50q0.4 0 1 0-0.5 0-1 0z"/><path class="c" d="m5.5 53.4q-0.1-0.2 0-0.3 0.1 0.3 0.2 0.7-0.1 0-0.1 0-0.1-0.2-0.1-0.4z"/><path class="d" d="m80.1 49.3q-0.1 0.1-0.3 0.3 0.1-0.2 0.3-0.3z"/><path class="d" d="m45.3 41.8q-0.1 0.3-0.3 0.6 0.1-0.3 0.3-0.6z"/><path class="c" d="m25 51.7q0-0.3 0.1-0.7 0 0.3-0.1 0.7z"/><path class="g" d="m39.6 43.3q-0.1-0.1-0.2-0.4 0.1 0.2 0.2 0.4z"/><path class="e" d="m86.7 45.8q-0.1-0.2-0.3-0.4 0.1 0.1 0.3 0.4z"/><path class="d" d="m81.2 45q-0.2 0.2-0.4 0.3 0.1-0.2 0.4-0.3z"/><path class="d" d="m40.5 50q0.2 0.2 0.3 0.5-0.2-0.2-0.3-0.5z"/><path class="c" d="m28.7 55q-0.1 0.1-0.3 0.3 0.1-0.2 0.3-0.3z"/><path class="e" d="m5.4 44.3q0.1 0.2 0.1 0.4-0.1-0.2-0.1-0.4z"/><path class="d" d="m74.4 52.8q0.2 0.1 0.3 0.3-0.1 0-0.2-0.1-0.1-0.1-0.1-0.2z"/><path class="d" d="m84 53.8q-0.1 0-0.3 0 0.2-0.1 0.4-0.2c0.1 0.1 0.1 0.1 0.1 0.1q-0.1 0-0.2 0.1z"/><path class="d" d="m54.7 53.4q0.1-0.1 0.3-0.3-0.1 0.2-0.3 0.3z"/><path class="g" d="m95.7 50.3q-0.1-0.2-0.2-0.5 0.1 0.2 0.2 0.5z"/><path class="d" d="m43.5 50.7q0-0.2 0.1-0.4 0 0.2-0.1 0.4z"/><path class="d" d="m79.7 49.6q0 0.2-0.1 0.4 0-0.2 0.1-0.4z"/><path class="c" d="m16.9 51.4q0.1 0.1 0.2 0.3-0.1-0.1-0.2-0.3z"/><path class="g" d="m56.3 45.2q-0.2-0.1-0.4-0.2 0.2 0 0.4 0.2z"/><path class="g" d="m89.9 45.1q-0.1 0.1-0.3 0.2 0.1-0.1 0.3-0.2z"/><path class="g" d="m39.1 42.1q-0.1-0.1-0.2-0.3 0.1 0.1 0.2 0.3z"/><path class="d" d="m74.8 53.3q0.2 0 0.3 0.1-0.1 0-0.3-0.1z"/><path class="e" d="m12.8 53.4q0.1 0.1 0.1 0.3-0.1-0.1-0.1-0.3z"/><path class="c" d="m18.4 53.2q0.1 0.1 0.2 0.2-0.1 0-0.2-0.2z"/><path class="e" d="m74.4 52.8c0 0.1 0 0.1 0.1 0.2q-0.1-0.1-0.3-0.2 0.1-0.1 0.2 0z"/><path class="d" d="m94.8 49.1q-0.1 0-0.3-0.2 0.2 0.1 0.3 0.2z"/><path class="g" d="m95.3 46.1q-0.1 0.1-0.1 0.1-0.1-0.2-0.2-0.4 0.1 0.1 0.3 0.3z"/><path class="g" d="m90.7 51.5q-0.1 0-0.1-0.2 0 0.1 0.1 0.2z"/><path class="e" d="m84.2 53.7c0 0 0 0 0-0.1q0 0 0 0 0.1 0 0.1-0.1 0 0 0 0 0.1 0 0.2 0-0.1 0.1-0.3 0.2z"/><path class="e" d="m87 46.2q-0.1-0.1-0.2-0.3 0.1 0.1 0.2 0.3z"/><path class="e" d="m19.9 50q0.2 0 0.5 0-0.2 0-0.5 0z"/><path class="c" d="m30.3 56.3q0-0.1 0.1-0.2 0 0.1-0.1 0.2z"/><path class="d" d="m50.1 49.5q0 0.1-0.1 0.2 0-0.1 0.1-0.2z"/><path class="c" d="m23.1 51q0 0.1-0.1 0.2 0-0.1 0.1-0.2z"/><path class="c" d="m23.5 51q0 0.1-0.1 0.1 0 0-0.1-0.1 0.1 0 0.2 0z"/><path class="c" d="m17.4 52.3q0.1 0 0.2 0.1-0.1 0-0.2-0.1z"/><path class="g" d="m56.7 45.6q-0.1-0.1-0.2-0.2 0.1 0.1 0.2 0.2z"/><path class="c" d="m24.5 51q0 0.1-0.1 0.1 0 0-0.1-0.1 0.1 0 0.2 0z"/><path class="e" d="m12.8 45.8q0.1 0.1 0.1 0.2-0.1 0-0.2-0.1 0.1 0 0.1-0.1z"/><path class="e" d="m19 50.5q0-0.1 0-0.2 0 0.1 0 0.2z"/><path class="d" d="m95.3 52.8q0-0.1 0.1-0.2 0 0-0.1 0.2z"/><path class="d" d="m79.6 52.7q0.1 0 0.1 0.1-0.1 0-0.1-0.1z"/><path class="g" d="m49.9 52.8q0.1 0 0.2 0.1-0.1 0-0.2-0.1z"/><path class="g" d="m95.8 50.5q0 0.1-0.1 0.2 0-0.2 0-0.4 0.1 0 0.1 0.2z"/><path class="e" d="m61.7 47.7q0-0.1 0.1-0.2 0 0.1-0.1 0.2z"/><path class="c" d="m23.7 53.3q0-0.1 0.1-0.2 0 0.1-0.1 0.2z"/><path class="d" d="m94.7 53.3q0-0.1 0.1-0.1 0 0.1-0.1 0.1z"/><path class="c" d="m18.2 53.1q0 0 0.2 0.1-0.1 0-0.2-0.1z"/><path class="c" d="m25.3 48.3q0-0.1 0-0.3 0 0.1 0 0.3z"/><path class="e" d="m5.4 45q0.1 0.1 0.1 0.2-0.1 0-0.2-0.1 0.1 0 0.1-0.1z"/><path class="d" d="m71.1 43.6q0.1-0.1 0.2-0.2-0.1 0.1-0.2 0.2z"/><path class="g" d="m66.5 45.5q-0.1 0-0.2-0.2 0.1 0.1 0.2 0.2z"/><path class="d" d="m84.5 53.5q-0.1 0-0.2 0 0.1 0 0.2-0.1 0 0 0 0.1z"/><path class="g" d="m94.9 45.7q0-0.1-0.1-0.2 0 0 0.1 0.2z"/><path class="g" d="m39.4 42.8q-0.1 0-0.1-0.2 0 0.1 0.1 0.2z"/><path class="h" d="m69 51.9q0 0 0 0.2 0-0.1 0-0.2z"/><path class="d" d="m55 53.1q0-0.1 0.1-0.2 0 0.1-0.1 0.2z"/><path class="d" d="m93.6 53.8q0.1 0 0.2-0.1 0 0.1-0.2 0.1z"/><path class="g" d="m65.5 44.8q-0.1 0-0.2-0.1 0.1 0 0.2 0.1z"/><path class="e" d="m76.5 51.4q-0.1-0.1-0.2-0.2 0.1 0 0.2 0.2z"/><path class="d" d="m40.8 50.6q0 0 0.1 0.2 0-0.1-0.1-0.2z"/><path class="h" d="m69 44.9q0 0.1 0 0.3 0-0.1 0-0.3z"/><path class="g" d="m67.3 46.8q0 0-0.1-0.2 0.1 0.1 0.1 0.2z"/><path class="c" d="m17.1 51.8q0 0 0.1 0.1-0.1 0-0.1-0.1z"/><path class="c" d="m28.2 55.4q0 0-0.2 0.1 0.1-0.1 0.2-0.1z"/><path class="c" d="m24.9 52q0 0 0-0.1 0 0 0 0.1z"/><path class="d" d="m76.9 51.8q-0.1 0-0.2-0.1 0.1 0 0.2 0.1z"/><path class="g" d="m91.1 51.9q-0.1 0-0.2-0.1 0.1 0 0.2 0.1z"/><path class="c" d="m29.6 57q0-0.1 0.1-0.2 0 0.1-0.1 0.2z"/><path class="c" d="m29.1 57.2q0.1 0 0.2-0.1-0.1 0.1-0.2 0.1z"/><path class="c" d="m29.3 57.1q0.1 0 0.2-0.1-0.1 0.1-0.2 0.1z"/><path class="d" d="m71.3 43.4q0-0.1 0.1-0.2 0 0.1-0.1 0.2z"/><path class="g" d="m88.8 52.6q0.1 0 0.1 0.1 0 0-0.1-0.1z"/><path class="d" d="m94.5 53.5q0-0.1 0.1-0.2 0 0.1-0.1 0.2z"/><path class="d" d="m54.6 53.6q0-0.1 0.1-0.2 0 0.1-0.1 0.2z"/><path class="d" d="m89.2 53.1q0 0 0.1 0-0.1 0-0.1 0z"/><path class="d" d="m50.2 53q0 0.1 0 0.1-0.1 0-0.1-0.1 0.1 0 0.1 0z"/><path class="c" d="m23.9 53.1q0 0 0.1-0.1 0 0.1-0.1 0.1z"/><path class="d" d="m94.3 53.6q0-0.1 0.1-0.1 0 0-0.1 0.1z"/><path class="d" d="m80.4 53.6q0.1-0.1 0.2 0-0.1 0-0.2 0z"/><path class="d" d="m71 43.7q0-0.1 0.1-0.1 0 0-0.1 0.1z"/><path class="d" d="m89 52.9q0.1 0 0.2 0.1-0.1 0-0.2-0.1z"/><path class="d" d="m94.1 53.7q0-0.1 0.1-0.1 0 0-0.1 0.1z"/><path class="c" d="m17.9 52.9q0 0 0.1 0 0 0-0.1 0z"/><path class="c" d="m28.8 54.8q0 0.1-0.1 0.2 0-0.1 0.1-0.2z"/><path class="d" d="m93.9 53.7q0 0 0.1 0 0 0-0.1 0z"/><path class="c" d="m17.6 52.5q0 0 0.1 0.1-0.1 0-0.1-0.1z"/><path class="g" d="m39.3 42.5q-0.1 0-0.1-0.1 0 0 0.1 0.1z"/><path class="g" d="m39.2 42.3q-0.1 0-0.1-0.1 0 0 0.1 0.1z"/><path class="d" d="m45.4 41.6q0 0.1-0.1 0.2 0-0.1 0.1-0.2z"/><path class="g" d="m38.9 41.8q-0.1-0.1-0.1-0.2 0 0.1 0.1 0.2z"/><path class="c" d="m18.5 45.2q0 0.1-0.1 0.1 0 0 0.1-0.1z"/><path class="d" d="m54.8 46.7q0.1 0 0.1 0.1 0 0-0.1-0.1z"/><path class="d" d="m80.7 45.3q0 0-0.1 0.1 0-0.1 0.1-0.1z"/><path class="g" d="m56.5 45.4q0 0-0.1-0.1 0 0 0.1 0.1z"/><path class="g" d="m89.1 49q0.1 0 0.1 0.1 0 0-0.1-0.1z"/><path class="g" d="m66.3 45.3q-0.1 0-0.2-0.1 0.1 0 0.2 0.1z"/><path class="g" d="m62.7 44.8q0 0-0.1 0.1 0-0.1 0.1-0.1z"/><path class="g" d="m65.7 44.9q0 0-0.2-0.1 0.1 0 0.2 0.1z"/><path class="g" d="m62.5 44.9q0 0-0.1 0.1 0-0.1 0.1-0.1z"/><path class="g" d="m65.9 45q-0.1 0-0.2-0.1 0.1 0 0.2 0.1z"/><path class="g" d="m95 49.2q0 0-0.2-0.1 0.1 0 0.2 0.1z"/><path class="g" d="m90.3 44.9q0 0-0.2 0.1 0.1-0.1 0.2-0.1z"/><path class="g" d="m62.4 45q-0.1 0-0.2 0.1 0 0 0.2-0.1z"/><path class="d" d="m44.8 47.9q-0.1-0.1 0-0.2 0 0 0 0.2z"/><path class="g" d="m90.1 45q-0.1 0-0.2 0.1 0.1-0.1 0.2-0.1z"/><path class="d" d="m44.9 47.7q-0.1-0.1 0-0.2 0 0 0 0.2z"/><path class="e" d="m64.9 47.3q0 0 0 0.1-0.1 0-0.1-0.1 0-0.1 0-0.1c0 0 0.1 0.1 0.1 0.1z"/><path class="g" d="m94.4 45.2q0 0-0.1-0.1 0 0 0.1 0.1z"/><path class="e" d="m39.1 47.1c0 0 0 0 0 0q0.1 0 0.1 0.1-0.1 0-0.1-0.1z"/><path class="e" d="m64.8 47.3q-0.1-0.1-0.1-0.2c0 0 0 0 0 0q0 0 0 0 0.1 0.1 0.1 0.1 0 0 0 0.1z"/><path class="g" d="m91.1 46.6q0 0 0.1-0.1 0 0-0.1 0.1z"/><path class="g" d="m66.6 45.6q0 0-0.1-0.1 0.1 0 0.1 0.1z"/><path class="g" d="m95.5 49.6q-0.1 0-0.2-0.1 0.1 0 0.2 0.1z"/><path class="g" d="m90.9 51.7q-0.1 0-0.2-0.1 0.1 0 0.2 0.1z"/><path class="d" d="m80 45.9q0 0.1 0 0.1 0 0 0-0.1z"/><path class="g" d="m67.2 46.5q0 0-0.1-0.1 0.1 0 0.1 0.1z"/><path class="g" d="m67.1 46.3q0 0-0.1-0.1 0.1 0 0.1 0.1z"/><path class="g" d="m67 46.2q0-0.1-0.1-0.2 0 0 0.1 0.2z"/><path class="d" d="m50.5 53.4q0 0 0 0 0 0.1 0 0z"/><path class="c" d="m28.3 55.3q0 0-0.1 0.1 0-0.1 0.1-0.1z"/><path class="g" d="m95 45.8q0 0-0.1-0.1 0.1 0 0.1 0.1z"/><path class="e" d="m39 47q0 0 0.1 0-0.1 0-0.1 0z"/><path class="e" d="m12.9 46.2q0 0-0.1 0.1 0-0.1 0.1-0.1z"/><path class="d" d="m64.7 47.1c0 0 0 0 0 0-0.1 0-0.1-0.1-0.1-0.1q0.1 0 0.1 0.1z"/><path class="d" d="m89.4 53.3q0.1 0 0.1 0 0 0.1-0.1 0z"/><path class="d" d="m50.4 53.3q0 0 0 0 0 0.1 0 0z"/><path class="g" d="m66.9 46q0 0-0.1-0.1 0 0 0.1 0.1z"/><path class="g" d="m66.8 45.9q0 0-0.1-0.1 0.1 0 0.1 0.1z"/><path class="e" d="m80.9 53.8q0 0 0.1 0.1 0 0-0.1-0.1z"/><path class="g" d="m91 46.7q0 0 0-0.1 0 0 0 0.1z"/><path class="g" d="m94.7 45.4q-0.1 0-0.1-0.1 0 0 0.1 0.1z"/><path class="g" d="m91.2 46.5q0 0 0.1-0.1 0 0-0.1 0.1z"/><path class="g" d="m90.9 46.8q0-0.1 0-0.1 0 0 0 0 0.1 0 0 0.1z"/><path class="g" d="m93.2 46.7q0.1 0 0.1 0.1 0 0-0.1-0.1z"/><path class="h" d="m69 53.6q0 0 0 0.1 0 0 0-0.1z"/><path class="e" d="m61.8 47.4q0 0 0 0 0.1 0 0.1 0 0 0-0.1 0z"/><path class="g" d="m94.6 45.3q-0.1 0-0.1-0.1 0 0 0.1 0.1z"/><path class="g" d="m56.4 45.3q-0.1 0-0.1-0.1 0 0 0.1 0.1z"/><path class="g" d="m69.3 41.6q0 0-0.1 0.1 0-0.1 0.1-0.1z"/><path class="e" d="m75.2 53.5q0 0 0.1 0.1 0 0-0.1-0.1z"/><path class="g" d="m94.8 45.5q-0.1 0-0.1-0.1 0 0 0.1 0.1z"/><path class="g" d="m93.4 46.9q0.1 0 0 0-0.1 0-0.1 0 0.1-0.1 0.1 0z"/><path class="e" d="m45.3 47q-0.1-0.1 0-0.1 0 0 0 0 0 0 0 0.1z"/><path class="g" d="m66.7 45.7q0 0.1-0.1 0 0.1 0 0.1 0z"/><path class="d" d="m50.3 49.3q0 0 0 0.1 0-0.1 0-0.1z"/><path class="g" d="m95.2 49.4q0 0-0.1-0.1 0.1 0 0.1 0.1z"/><path class="d" d="m50.2 49.4q0 0 0 0.1 0-0.1 0-0.1z"/><path class="c" d="m17.3 52.2q0 0 0.1 0-0.1 0-0.1 0z"/><path class="g" d="m95.3 49.5q0 0-0.1-0.1 0.1 0 0.1 0.1z"/><path class="g" d="m95.5 49.8q0 0-0.1-0.1 0.1 0 0.1 0.1z"/><path class="e" d="m18.9 50q0.1 0 0.1 0 0 0 0 0.1-0.1 0-0.1-0.1z"/><path class="e" d="m59.2 44.7q0 0.1-0.1 0.1 0 0 0.1-0.1z"/><path class="d" d="m44.2 44.2c0 0 0 0 0 0q0 0 0-0.1 0 0 0 0.1z"/><path class="g" d="m95.1 49.3q0 0-0.1-0.1 0.1 0 0.1 0.1z"/><path class="c" d="m17.2 52q0 0 0.1 0.1-0.1 0-0.1-0.1z"/><path class="d" d="m40.9 50.8q0 0 0.1 0.1-0.1 0-0.1-0.1z"/><path class="d" d="m69.3 43.6q0.1 0 0.1 0-0.1 0-0.1 0z"/><path class="g" d="m69.1 43.3q0 0 0.1 0-0.1 0.1-0.1 0z"/><path class="d" d="m43 51.7q-0.1 0 0-0.1 0 0.1 0 0.1z"/><path class="g" d="m91 51.8q-0.1 0-0.1-0.1 0 0 0.1 0.1z"/><path class="c" d="m24.9 51.9q0-0.1 0.1-0.1 0 0-0.1 0.1z"/><path class="d" d="m95.2 52.9q0-0.1 0-0.1 0.1 0 0 0.1z"/><path class="d" d="m74.7 53.2q0 0 0.1 0 0 0-0.1 0z"/><path class="g" d="m66.1 45.2q0 0-0.1-0.1 0.1 0 0.1 0.1z"/><path class="d" d="m50.3 53.2c0 0 0 0 0 0 0 0 0 0 0 0 0 0.1 0 0 0 0z"/><path class="d" d="m94.9 53.2q0-0.1 0-0.1 0.1 0 0 0.1z"/><path class="g" d="m62.2 45.1q0 0-0.1 0.1 0 0 0.1-0.1z"/><path class="d" d="m95 53.1q0-0.1 0-0.1 0.1 0 0 0.1z"/><path class="g" d="m50.2 53q0 0-0.1 0 0 0 0 0 0 0 0.1 0z"/><path class="c" d="m18 53q0.1 0 0.1 0 0 0-0.1 0z"/><path class="d" d="m95.1 53q0-0.1 0-0.1 0.1 0 0 0.1z"/><path class="d" d="m89.3 53.2q0.1 0 0.1 0 0 0.1-0.1 0z"/><path class="d" d="m88.9 52.8q0.1 0 0.1 0 0 0.1-0.1 0z"/><path class="e" d="m12.8 48.7c0-0.1 0-0.1 0.1-0.1 0 0 0 0.1 0 0.1q-0.1 0-0.1 0z"/><path class="g" d="m88.9 48.8q0.1 0 0.1 0 0 0.1-0.1 0z"/><path class="g" d="m89 48.9q0.1 0 0.1 0 0 0.1-0.1 0z"/><path class="c" d="m24.4 52.6q0 0 0.1-0.1 0 0.1-0.1 0.1z"/><path class="g" d="m88.8 52.5q0 0 0 0 0 0.1 0 0z"/><path class="g" d="m69 43.2q0.1 0 0.1 0.1 0 0-0.1-0.1z"/><path class="d" d="m50.4 49.2q0 0 0 0.1 0-0.1 0-0.1z"/><path class="c" d="m28.6 52.3q0 0 0 0c0 0 0 0 0 0z"/><path class="d" d="m45.7 45.9q-0.1 0.2-0.2 0.5 0.1-0.3 0.2-0.5z"/><path class="i" d="m52.4 50.1c0.4 0 0.7-0.1 1-0.1 0.6 0 1.2 0 2 0-0.2 0.5-0.4 1-0.6 1.5q-0.1 0.1-0.1 0.1 0 0 0 0-0.1 0.1-0.1 0.1 0.1 0 0 0 0 0.1-0.1 0.1 0 0 0 0-0.1 0.1-0.1 0.1 0 0 0 0-0.1 0.1-0.1 0.1 0 0-0.1 0-0.1 0.1-0.2 0.1 0 0 0 0-0.8 0-1.5 0 0 0 0 0-0.1 0-0.1-0.1-0.1-0.1-0.3-0.3-0.1-0.1-0.1-0.2 0 0.1 0 0-0.2-0.9 0.4-1.4z"/><path class="d" d="m52.4 50.1q-0.6 0.5-0.4 1.4c-0.4-0.4-0.2-1.2 0.4-1.4z"/><path class="d" d="m52.6 52.2q0.6-0.1 1.4-0.1c-0.3 0.3-1 0.3-1.4 0.1z"/><path class="d" d="m54 52.1q0.1 0 0.2-0.1 0 0.1-0.2 0.1z"/><path class="d" d="m54.4 51.9q0 0 0.1-0.1 0 0.1-0.1 0.1z"/><path class="d" d="m52.4 52.1q0-0.1 0.1 0 0 0-0.1 0z"/><path class="d" d="m52 51.6q0 0 0.1 0.1-0.1 0-0.1-0.1z"/><path class="d" d="m54.3 52q0 0 0.1-0.1 0 0.1-0.1 0.1z"/><path class="d" d="m54.8 51.6q-0.1 0 0 0 0 0 0 0 0 0 0 0z"/><path class="d" d="m54.6 51.8q0 0 0-0.1 0 0.1 0 0.1z"/><path class="d" d="m54.7 51.7q-0.1 0 0-0.1 0 0.1 0 0.1z"/><path class="i" d="m19.3 47.2c0.7-0.8 1.6-1 2.5-0.7 0.8 0.3 1.2 1 1 1.8-1.3 0-2.6 0-3.8 0q-0.1 0-0.1 0 0.1-0.4 0.2-0.7 0 0 0-0.1 0.1-0.2 0.2-0.3z"/><path class="c" d="m19 48.4q1.8-0.1 3.8 0c0 0-0.1 0.1-0.2 0.1q-1.7 0-3.4 0c-0.1 0-0.2-0.1-0.2-0.1z"/><path class="c" d="m19 47.6q0 0.3 0 0.7 0-0.3 0-0.7z"/><path class="c" d="m19.2 47.2q0 0.1-0.1 0.4 0-0.2 0.1-0.4z"/><path class="i" d="m81.8 51.8c-0.3-0.5-0.2-0.9 0-1.4 0.1-0.2 0.3-0.4 0.5-0.4 0.8-0.1 1.7-0.1 2.5-0.1 0.2 0 0.2 0.1 0.2 0.3-0.1 0.7-0.3 1.3-0.8 1.7q-0.2 0.1-0.2 0.1 0 0-0.1 0-0.1 0.1-0.1 0.1c0 0 0 0-0.1 0q-0.1 0.1-0.2 0.1c0 0 0.1 0 0 0q-0.7 0-1.3-0.1 0 0 0 0-0.1-0.1-0.1-0.1c0 0 0 0 0 0q-0.1-0.1-0.1-0.1c0 0 0 0 0 0q-0.1-0.1-0.2-0.1z"/><path class="g" d="m82.2 52.2q0.6 0 1.3 0c-0.4 0.3-0.8 0.3-1.3 0z"/><path class="g" d="m81.8 51.8q0.1 0 0.2 0.1-0.1 0-0.2-0.1z"/><path class="g" d="m83.6 52.2q0 0 0.1-0.1 0 0.1-0.1 0.1z"/><path class="g" d="m83.8 52.1q0 0 0.1-0.1 0 0.1-0.1 0.1z"/><path class="g" d="m82.1 52q0 0 0.1 0.1 0 0-0.1-0.1z"/><path class="g" d="m84 52q0 0 0.2-0.1-0.1 0.1-0.2 0.1z"/><path class="d" d="m84.3 53.5q0 0.1-0.1 0.1 0 0 0.1-0.1z"/><path class="g" d="m82 51.9q0 0 0.1 0.1-0.1 0-0.1-0.1z"/><path class="d" d="m64.8 47.2q-0.1 0-0.1-0.1 0.1 0 0.2 0.1-0.1 0.1-0.1 0z"/><path class="d" d="m61.5 45.8q0 0 0.1-0.1 0 0-0.1 0.1z"/><path class="f" d="m76.2 50.8q0 0.1-0.1 0.1 0 0 0-0.1c0-1.4 0-2.7 0-4q0 0 0.1 0 0 2 0 4z"/><path class="f" d="m73.9 51.2q-0.1-2 0-4.2c0 0 0 0 0 0q0 2.1 0 4.2z"/><path class="d" d="m76.1 46.8q0 1.9 0 3.9c-0.1 0-0.1 0-0.1-0.1q0-1.9 0.1-3.8z"/><path class="d" d="m73.9 46.9c0 0.1 0 0.1 0 0.1q-0.1 0-0.1-0.1 0.1 0 0.1 0z"/><path class="j" d="m5.7 53.8c-0.1-0.2-0.1-0.5-0.2-0.7 0-0.2 0-0.3 0-0.4 0-0.3 0.1-0.4 0.1-0.6q0-5 0-10c0-0.5 0-0.7 0.5-0.6q0.7 0.1 1.3 0c0.4 0 0.5 0.1 0.5 0.5 0 1.3 0 2.6 0 3.9 0 0.4 0.1 0.6 0.6 0.6 1.1 0 2.1 0 3.2 0q0.1 0 0.3 0c1.1 0 1.1 0 1.1-1.1q0-1.7 0-3.4c0-0.3 0.1-0.4 0.4-0.4q0.6 0 1.1 0c0.4 0 0.6 0.1 0.5 0.5q0 1.9 0 3.7 0 3.7 0.1 7.3c0 0.4-0.2 0.6-0.6 0.5q-0.6 0-1.1 0c-0.3 0-0.4-0.1-0.4-0.4q0-2 0-4.1c0-0.1-0.1-0.3-0.2-0.5-0.2 0-0.3-0.2-0.4-0.2q-2.1 0-4.1 0c-0.4 0-0.5 0.2-0.5 0.5q0 2.2 0 4.4c0 0.2 0 0.4-0.4 0.5-0.1 0-0.2 0-0.4 0-0.2 0-0.4 0-0.6 0q-0.3 0-0.8 0z"/><path class="a" d="m69.2 53.6c0-0.1 0.1-0.2 0.1-0.3q0-4-0.1-8c0-0.3 0.1-0.4 0.4-0.4q0.8 0.1 1.6 0.1 0.1 4.3 0.1 8.7c-0.7 0-1.4 0-2.1-0.1z"/><path class="c" d="m6.6 53.8q0.2 0 0.5 0-0.2 0-0.5 0z"/></svg>